<svg width="81" height="81" viewBox="0 0 81 81" fill="none" xmlns="http://www.w3.org/2000/svg">
<path fill-rule="evenodd" clip-rule="evenodd" d="M43.0313 59.7352V81H37.9688V59.7456L32.4689 80.2913L27.5786 78.9822L33.0846 58.4134L22.445 76.8494L18.0603 74.3189L28.6965 55.8887L13.651 70.9342L10.071 67.3547L25.1312 52.2945L6.68134 62.9449L4.15037 58.5604L22.5779 47.923L2.02362 53.4268L0.713749 48.5367L21.2738 43.0313H0V37.9688H21.2576L0.714079 32.4688L2.02333 27.5785L22.584 33.0831L4.1507 22.445L6.68117 18.0603L25.1243 28.704L10.0712 13.6509L13.6509 10.0711L28.7004 25.1206L18.0604 6.68666L22.4449 4.15591L33.0845 22.5891L27.5786 2.02327L32.4689 0.71402L37.9688 21.2571V0H43.0313V21.2675L48.5368 0.713692L53.427 2.02356L47.9185 22.5882L58.5605 4.15569L62.9448 6.68694L52.298 25.1277L67.3548 10.071L70.9342 13.6511L55.8888 28.6964L74.3188 18.0603L76.8493 22.445L58.4077 33.0878L78.9824 27.5785L80.2915 32.4688L59.7519 37.9688H81V43.0313H59.7357L80.2918 48.5367L78.9821 53.4268L58.4139 47.9182L76.8496 58.5604L74.3187 62.9449L55.8819 52.3021L70.9344 67.3546L67.3547 70.9343L52.3019 55.8816L62.9449 74.3186L58.5604 76.8496L47.9185 58.4143L53.427 78.9819L48.5368 80.2916L43.0313 59.7352Z" fill="url(#paint0_linear)"/>
<defs>
<linearGradient id="paint0_linear" x1="40.5" y1="81" x2="-11.5" y2="-24" gradientUnits="userSpaceOnUse">
<stop stop-color="#12B5FF"/>
<stop offset="1" stop-color="#12B5FF" stop-opacity="0"/>
</linearGradient>
</defs>
</svg>
