<svg width="75" height="71" viewBox="0 0 75 71" fill="none" xmlns="http://www.w3.org/2000/svg">
<path fill-rule="evenodd" clip-rule="evenodd" d="M56.1435 0.990234C48.6457 0.990234 42.8011 4.18561 37.2006 7.24758L37.1235 7.28975C31.4512 10.3908 26.0189 13.3417 19.0756 13.3417C12.7356 13.3417 7.64201 10.8777 2.48085 8.08328L0.990234 7.27622V64.5001L1.00006 65L1.51929 65.1818C6.70451 67.9892 12.1878 70.6838 19.0756 70.6838C26.5701 70.6838 32.413 67.4894 38.0126 64.4279L38.0923 64.3843C43.7644 61.2833 49.1979 58.3323 56.1435 58.3323C62.4835 58.3323 67.5771 60.7964 72.7382 63.5908L74.2289 64.3978V7V6.78999L73.6998 6.49227C68.5146 3.68485 63.0313 0.990234 56.1435 0.990234Z" fill="url(#paint0_linear)"/>
<defs>
<linearGradient id="paint0_linear" x1="1.00006" y1="-23" x2="105" y2="104" gradientUnits="userSpaceOnUse">
<stop stop-color="#FF6A3E"/>
<stop offset="1" stop-color="#FF6A3E" stop-opacity="0"/>
</linearGradient>
</defs>
</svg>
